<svg xmlns="http://www.w3.org/2000/svg" width="436" height="438"><defs><clipPath id="a"><path transform="translate(619.792 4492.222)" fill="#fff" stroke="#707070" d="M0 0h436v438H0z"/></clipPath></defs><g transform="translate(-619.792 -4492.222)" clip-path="url(#a)"><path d="M740.409 4643.986c-12.732 33.006-51.96 82.732-51.96 82.732s-.78 19.874 10.521 37.021c-2.337-22.213 14.029-45.854 14.029-45.854s.006-3.814 1.842-4.987c10.42-27.86 25.746-54.138 35.139-82.827a33.071 33.071 0 00-9.571 13.915z" fill="#df100e"/><path d="M764.954 4651.591c19.751-1.881 44.305 9.049 60.021-5.409l-33.258-19.224s-25.355-10.5-41.737 3.113c-9.393 28.688-24.719 54.967-35.139 82.827 1.747-1.116 5.149.156 11.8 9.4a26.852 26.852 0 012.935 4.994c-3.177-28.719 4.635-72.407 35.378-75.701z" fill="#8f1a0f"/><path d="M884.217 4680.424l-59.242-34.243c-15.716 14.458-40.271 3.528-60.021 5.409-30.743 3.294-38.553 46.982-35.381 75.7 5.6 13.054-15.325 10.265-.6 30.605 16.366 22.6 22.6 10.911 45.459 8.572s10.357 20.44 44.831 38.189c15.007 7.728 34.1 9.025 52.231 10.693-12.967-44.536-.867-91.791 12.723-134.925z" fill="#df100e"/><path d="M911.05 4695.933l-26.83-15.509c-13.591 43.134-25.691 90.389-12.719 134.925 14.662 1.349 28.694 2.94 39.422 8.373 0-20.817-.144-43.025 14.133-57.3 7.729-6.625 14.354 7.729 19.874 15.458 1.1-17.666-3.312-38.644 7.729-54.1a81.8 81.8 0 0114.891-18.076z" fill="#8f1a0f"/><path d="M993.966 4901.69l14.809-69.365-24.185-118.466-17.04-4.154a81.8 81.8 0 00-14.895 18.067c-11.041 15.458-6.625 36.436-7.729 54.1-5.521-7.729-12.145-22.083-19.874-15.458-14.276 14.276-14.131 36.485-14.133 57.3a33.164 33.164 0 0115.241 14.837c16.366 32.344-24.162 109.243 8.183 120.025s35.852-37.8 43.646-36.241 4.286 45.708 4.286 45.708 20.654-8.3 15.588-21.938-3.897-44.415-3.897-44.415z" fill="#df100e"/><path d="M987.987 4717.839c12.145 3.312 16.562 14.354 24.291 23.187a17.986 17.986 0 01-.5-18.45c-1.856-2.795-3-4.69-3-4.69a26.792 26.792 0 00-3.606-5.518c-3.757 4.907-9.708 6.966-17.185 5.471z" fill="#1a3a67"/><path d="M1039.72 4795.242a23.152 23.152 0 001.264-5.635q-.626 2.822-1.264 5.635z" fill="#1971bc"/><path d="M1039.43 4766.466a38.081 38.081 0 00.113-6.29c-2.865 3.747-4.079 8.254-4.079 13.973-5.521-5.521-2.208-13.249-9.937-15.458 4.416 8.833 3.312 17.666-2.208 25.395 3.312-3.312 7.729-1.1 11.041-3.312 5.521 11.041-4.417 17.666-9.937 26.5-3.312 4.416-5.521 15.458 1.1 19.874-2.208-4.417-4.417-12.145-1.1-14.354 6.29-5.391 12.578-10.052 15.3-17.551q.639-2.812 1.264-5.635a23.153 23.153 0 01-1.264 5.635 179.925 179.925 0 01-6.465 23.072c-3.561 10.682-5.68 22.8-4.055 34.038 1.851-8.3 6.154-26.635 10.418-37.823 11.098-31.696-.191-48.064-.191-48.064z" fill="#1a3a67"/><path d="M780.628 4618.247l.888.217a1.933 1.933 0 00-.888-.217z" fill="#1971bc"/><path d="M841.207 4647.342s-16.072-29.736-30.084-48.182-57.466-9.613-61.623-5.455c-18.185-9.613-29.616 3.9-39.228 10.905s-25.2 4.683-25.2 4.683 8.916 1.736 11.69 4.511c2.507 2.506 4.714 9.751 3.778 21.612 19.259-1.541 49.257 19.312 53.372 1.822 0-4.417-8.833-12.145-7.729-20.978 4.416 11.041 12.145 22.082 25.395 18.77 6.625-1.1 3.312-8.833 5.521-14.354.945 0 1.892-2.418 3.529-2.426-4.354-1.053-10.01-2.421-7.945-8.615l6.625-16.562c1.1 7.729 3.312 17.666 3.312 23.187 0 28.707-7.729 60.727 8.833 86.122-6.528-5.595-16.97-8.845-22.061-16.366-.551 9.187 2.334 16.686 6.868 21.219 5.716 5.716 6.153 15.329 6.153 15.329l-.7 26.5s19.225 39.228 57.157 43.9c29.533 3.641 43.151-10.982 47.738-17.638-2.276-3.959-4.551-8.372-6.827-7.8-16.562 3.312-32.02 1.1-45.269-9.937-1.92-2.881-5.513-5.759-10.049-5.734-.7.063-1.392.119-2.1.213a10.951 10.951 0 012.1-.213c15.683-1.412 29.477 4.865 44.276 10.15 11.041 4.417 16.562-7.729 24.291-13.25-3.312 0-6.625-1.1-9.937-2.208 6.625 0 12.145-5.521 18.77-5.521-2.208-3.312-6.625-1.1-9.937-2.208 7.729-3.312 22.082-9.937 16.562-14.354-8.833-7.729-19.874 8.833-28.707 12.145-12.145 5.521-28.707-1.1-41.957-8.833 14.354-1.1 28.707 4.417 41.957-1.1 12.145-5.521 20.978-16.562 35.332-19.874 3.312-1.1 3.312-5.521 6.625-6.625 15.1-2.831 24.548-7.281 31.112-18.851-33.88-11.14-111.643-33.984-111.643-33.984z" fill="#1971bc"/><path d="M791.452 4702.381c-16.562-25.395-8.833-57.414-8.833-86.122 0-5.521-2.208-15.458-3.312-23.187l-6.625 16.562c-2.065 6.194 3.592 7.562 7.945 8.615a1.933 1.933 0 01.888.217 90.889 90.889 0 00-.888-.217c-1.636.008-2.584 2.426-3.529 2.426-2.208 5.521 1.1 13.249-5.521 14.354-13.249 3.312-20.978-7.729-25.395-18.77-1.1 8.833 7.729 16.562 7.729 20.978-4.115 17.49-34.113-3.363-53.372-1.822-.1 1.27-.224 2.577-.4 3.953 17.666 1.24 25.719 6.554 40.268 7.854s21.3-5.457 21.3-5.457 4.416 0 13.768-4.156c1.818 8.572-1.818 28.317-4.935 40.906a41.432 41.432 0 00-1.153 7.5c5.095 7.521 15.538 10.772 22.065 16.366z" fill="#1a3a67"/><path d="M822.368 4752.066c.7-.094 1.4-.15 2.1-.213a10.942 10.942 0 00-2.1.213z" fill="#1971bc"/><path d="M974.354 4689.854a173.7 173.7 0 00-20.915-8.339l-.587-.192c-6.564 11.57-16.014 16.02-31.112 18.851-3.312 1.1-3.312 5.521-6.625 6.625-14.354 3.312-23.187 14.354-35.332 19.874-13.249 5.521-27.6 0-41.957 1.1 13.249 7.729 29.811 14.354 41.957 8.833 8.833-3.312 19.874-19.874 28.707-12.145 5.521 4.417-8.833 11.041-16.562 14.354 3.312 1.1 7.729-1.1 9.937 2.208-6.625 0-12.145 5.521-18.77 5.521 3.312 1.1 6.625 2.208 9.937 2.208-7.729 5.521-13.249 17.666-24.291 13.249-14.8-5.285-28.594-11.562-44.276-10.15 4.536-.025 8.129 2.853 10.049 5.734 13.249 11.041 28.707 13.249 45.269 9.937 2.276-.569 4.551 3.843 6.827 7.8a23.71 23.71 0 001.88-3.145 22.256 22.256 0 019.808-20.329c11.5-7.794 20.913-27.019 27.863-33.968 3.6-3.6 5.782-4.7 7.063-4.931a42.476 42.476 0 00-2.651-10.573c14.771-3.688 31.085-5.07 43.781-12.522z" fill="#1a3a67"/><path d="M1039.72 4795.242c-2.719 7.5-9.007 12.16-15.3 17.551-3.312 2.208-1.1 9.937 1.1 14.354-6.625-4.417-4.417-15.458-1.1-19.874 5.521-8.833 15.458-15.458 9.937-26.5-3.312 2.208-7.729 0-11.041 3.312 5.521-7.729 6.625-16.562 2.208-25.395 7.729 2.208 4.416 9.937 9.937 15.458 0-5.718 1.213-10.225 4.079-13.973-.331-5.307-1.9-12.474-7.647-15.272-6.817-3.317-15.59-15.513-20.118-22.329a17.986 17.986 0 00.5 18.45c-7.729-8.833-12.145-19.874-24.291-23.187 7.477 1.5 13.428-.564 17.181-5.472-4.339-5.432-13.343-14.112-30.814-22.513-12.7 7.453-29.01 8.834-43.782 12.527a42.475 42.475 0 012.651 10.573c1.195-.216 1.6.32 1.6.32s.492 12.08 15.69 30.981a50.273 50.273 0 0020.233 15.326c12.961-2.092 17.769-16.508 12.823-27.388 11.73 8.121 13.869 25.087 6.427 36.443 1.476 3.987-3.449 8.61-4.6 25.11-1.365 19.484 6.819 26.889 6.819 26.889l-2.339 25.915s2.728-5.261 15.783-3.508 22.6 13.639 22.6 13.639.343-1.642.942-4.328c-1.624-11.239.495-23.356 4.055-34.038a179.93 179.93 0 006.467-23.071z" fill="#1971bc"/><path d="M983.57 4732.192c4.945 10.88.138 25.3-12.823 27.388 8.175 3.443 15.028 4.152 17.763 6.886a6.074 6.074 0 011.487 2.169c7.442-11.356 5.304-28.322-6.427-36.443z" fill="#1a3a67"/><path d="M819.184 4571.362h-.838l-1.818-7.794-11.172 1.039h-2.375c8.654 14.591 12.693 31.857 13.862 49.2.1.115.208.237.3.352 2.458-14.269 2.168-28.533 2.041-42.797zm-10.745 33.247c.473.487.941.972 1.4 1.452-6.425-14.053-15.61-27.836-27.551-37.029l-4.99-.788-11.258 8.041a69.279 69.279 0 0142.399 28.324z" fill="#8f1a0f"/><path d="M766.041 4576.29l-6.927 4.949-2.728 2.728v5.585s35.072-1.948 50.271 13.25c.611.611 1.2 1.215 1.784 1.813a69.279 69.279 0 00-42.4-28.325z" fill="#df100e"/><path d="M809.838 4606.061c2.6 2.721 4.933 5.322 7 7.742-1.169-17.339-5.208-34.605-13.862-49.2h-13.468l-4.806 4.806-2.415-.381c11.941 9.197 21.126 22.98 27.551 37.033zm18.409-36.258h-.285l-6.235-2.857-1.818 4.417h-.721c.131 14.264.417 28.528-2.036 42.794a170.722 170.722 0 017.264 9.123c2.168-17.522 5.148-35.134 3.831-53.477zm24.651 14.548l-15.325-9.607-2.079 2.078h-2.445q-2.946 23.529-8.2 47.058c2.939 4.017 4.411 6.459 4.411 6.459z" fill="#df100e"/><path d="M832.375 4576.818v-7.014h-4.132c1.321 18.343-1.659 35.955-3.831 53.476.155.21.287.4.434.6q5.26-23.529 8.2-47.058z" fill="#8f1a0f"/><path d="M904.162 4651.592c2.795-.42 5.606-.945 8.431-1.523 16.553-6.4 33.813-11.136 50.887-15.694a41.279 41.279 0 01-9.783-4.04c-4.287-2.727-7.274-8.833-7.274-8.833h-5.2v-3.376l-8.573-2.339s-14.284 3.371-36.371 11.172-37.67 26.758-37.67 26.758 10.829 3.814 26.449 9.235a204.618 204.618 0 0127.531-12.883c-2.821.577-5.632 1.103-8.427 1.523z" fill="#df100e"/><path d="M910.495 4667.1a216.172 216.172 0 00-18.151-1.626q4.816 1.666 10 3.45c2.694-.734 5.419-1.324 8.151-1.824z" fill="#8f1a0f"/><path d="M928.878 4665.039c-5.737-.284-11.429-.636-16.987-1.3 5.558.667 11.25 1.019 16.987 1.3 18.643-1.039 37.538.218 55.709-3.555l-.234-.234v-7.533l-4.676-4.676h-9.226v-1.209c-18.964-7.982-38.716-1.677-57.861 2.237a204.618 204.618 0 00-27.531 12.883c2.323.806 4.767 1.653 7.282 2.522 6.08.28 12.13.837 18.151 1.626a147.761 147.761 0 0118.386-2.061z" fill="#df100e"/><path d="M993.965 4678.136v-4.412l-1.168-4.027-8.21-8.209c-18.171 3.773-37.065 2.516-55.709 3.555 22.332 1.1 45.326 1.165 63.679 14.506zm9.354 13.854c-30.341-10.2-61.182-20.738-92.824-24.89a99.64 99.64 0 00-8.155 1.824c18.374 6.326 39.56 13.532 57.334 19.345 41.306 13.509 49.1 29.616 49.1 29.616v-14.807l-5.456-10.912z" fill="#8f1a0f"/><path d="M1003.319 4683.852l-12.47-2.6 1.709-1.709c-18.353-13.341-41.347-13.4-63.679-14.506a147.779 147.779 0 00-18.384 2.06c31.642 4.153 62.482 14.691 92.824 24.89z" fill="#df100e"/><path d="M970.454 4647.832v-7.495l-5.586-5.586s-.537-.132-1.388-.376c-17.074 4.558-34.334 9.3-50.887 15.694 19.145-3.914 38.897-10.219 57.861-2.237z" fill="#8f1a0f"/><path d="M924.861 4623.581c-1.818-1.819-20-12.731-20-12.731l3.376-28.057 9.223-9.223-5.845-39.879-25.2-14.029h-18.189l-9.872 9.873-2.6 4.676-1.559 7.794-7.142 7.145-1.689 12.08-6.754 15.068s-4.806 11.3 0 16.108l5.979 5.974-15.329 31.954 13.509 19.225 15.847 4.157 31.695-23.382z" fill="#f9bfa8"/><path d="M850.17 4534.082s.13 7.145 1.3 8.314 1.884.454 1.884.454l2.252-7.888s2.489-7.245 6.905-7.245.78 2.859 6.1 4.937 9.743.259 11.041-3.637.779-6.494 8.314-3.247 19.548 5.65 21.042 11.95-6.625 14.809-7.533 19.225 1.364 7.339-.91 9.612-5.2 5.715 2.728 4.806 8.248 8.119 8.248 8.119 11.106-3.183 15.133-23.836-5.066-33.9-12.86-39.1-16.366-10.133-21.432-10.133-13.249 4.806-15.329 1.3-1.559-4.58-1.559-4.58-4.805 1.722-3.637 7.568c-5.974.909-9.611 4.417-12.08 9.872s-7.916 5.975-9.607 13.509z" fill="#050505"/><path d="M886.407 4934.246c2.208-1.1 4.416-4.416 6.625-4.416 7.988-.8 17.132-1.024 23.249-5.684 1.245-5.228 1.053-11.487-2.416-19.469-7.451-17.147-22.519-19.486-22.519-19.486s-.778-9.872 4.416-23.381 2.079-34.552-2.337-48.581-95.085-1.559-116.128-34.293c0 0-8.053 23.382 2.859 45.724s28.057 32.02 28.057 32.02 3.9 13.184 13.77 16.821c3.378 12.211 8.833 23.9 23.121 33.254 8.349 5.465 14.388 15.716 17.97 23.3 6.264-.929 12.551-1.584 17.813-6.847 0 5.518 1.104 15.455 5.52 11.038z" fill="#1971bc"/><path d="M893.032 4929.831c-2.208 0-4.417 3.312-6.625 4.416-4.417 4.417-5.521-5.521-5.521-11.041-5.262 5.262-11.549 5.918-17.813 6.847a87.644 87.644 0 013.853 9.437s4.417 9.092 2.857 24.681-2.6 23.9 4.157 21.3 9.352-7.274 9.352-7.274-.259 19.224-2.337 24.16-7.535 22.959 2.337 25.2 23.386-17.144 23.386-17.144-1.818-17.406 1.818-23.642 7.794-20 3.637-24.16-5.975-.52-5.975-14.809c0-7.35 7.729-13.6 10.126-23.656-6.12 4.66-15.263 4.885-23.252 5.685z" fill="#df100e"/><path d="M990.121 4843.773l-2 15.44-21.432 4.286-4.287 11.106s-10.327 8.379-7.015 14.419 5.066 6.041 5.066 6.041.585 10.131 4.482 10.131.2 4.482 5.455 4.482 7.014.974 14.419 3.9 16.367 1.559 16.367 1.559l15.2-17.925 1.949-10.133 5.845-9.158s1.862-11.275 4.092-21.238-25.612-20.751-38.141-12.91zm-305.05-234.481s-7.339 4.61-18.055 12.21-24.94 14.029-26.3 17.341-3.7 3.312-3.7 3.312.877 4.189 2.727 6.041-2.533 1.949.39 7.988 7.014 16.367 11.5 16.367 3.9-.585 6.917 2.436 1.656 4.383 12.275-6.236 21.336-16.464 19.583-27.376c7.209-1.948 9.742-2.007 9.742-2.007s6.625-13 4.287-21.374-19.366-8.702-19.366-8.702z" fill="#f9bfa8"/><path d="M780.411 4782.982c6.577-2.99 9.267-6.629 10.878-11.09-10.522-10.537-9.617-20.455-9.617-20.455l-4.676 30.656s.738 1.463 1.945 3.87c.408-1.697.939-2.981 1.47-2.981z" fill="#8f1a0f"/><path d="M867.637 4809.481a135.281 135.281 0 01-20.978-2.208c11.486-.82 15.042-10.784 12.49-19.927-11.93 3.623-26.54 5.081-41.884-.316-12.574-4.423-20.7-9.858-25.976-15.138-1.611 4.461-4.3 8.1-10.878 11.09-.531 0-1.062 1.284-1.47 2.981 4.4 8.769 15.077 30.138 19.357 39.516 5.455 11.951 17.666 11.171 17.666 11.171s10.392-7.275 29.617-7.275a54.782 54.782 0 0012.252-1.6c-1.227-8.411-.274-18.294 9.804-18.294z" fill="#df100e"/><path d="M888.188 4772.221a89.929 89.929 0 01-29.04 15.124c2.552 9.143-1 19.107-12.49 19.927a135.288 135.288 0 0020.978 2.208c-10.078 0-11.031 9.883-9.8 18.294 16.591-3.875 37.931-10.091 37.931-10.091z" fill="#8f1a0f"/><path d="M781.672 4751.437s-5.135 21.806 35.171 39.581 72.465-12.081 72.465-12.081v-12.47s-18.1 30.2-66.449 17.147c-39.724-10.723-40.446-40.918-40.446-40.918z" fill="#f2eb00"/></g></svg>