<svg width="512" height="512" xmlns="http://www.w3.org/2000/svg">

 <g>
  <title>background</title>
  <rect fill="none" id="canvas_background" height="602" width="802" y="-1" x="-1"/>
 </g>
 <g>
  <title>Layer 1</title>
  <g id="svg_1">
   <g id="svg_2">
    <path fill="#156bff" id="svg_3" d="m492,236l-472,0c-11.046,0 -20,8.954 -20,20c0,11.046 8.954,20 20,20l472,0c11.046,0 20,-8.954 20,-20s-8.954,-20 -20,-20z"/>
   </g>
  </g>
  <g id="svg_4">
   <g id="svg_5">
    <path fill="#156bff" id="svg_6" d="m492,76l-472,0c-11.046,0 -20,8.954 -20,20s8.954,20 20,20l472,0c11.046,0 20,-8.954 20,-20s-8.954,-20 -20,-20z"/>
   </g>
  </g>
  <g id="svg_7">
   <g id="svg_8">
    <path fill="#156bff" id="svg_9" d="m492,396l-472,0c-11.046,0 -20,8.954 -20,20c0,11.046 8.954,20 20,20l472,0c11.046,0 20,-8.954 20,-20c0,-11.046 -8.954,-20 -20,-20z"/>
   </g>
  </g>
  <g id="svg_10"/>
  <g id="svg_11"/>
  <g id="svg_12"/>
  <g id="svg_13"/>
  <g id="svg_14"/>
  <g id="svg_15"/>
  <g id="svg_16"/>
  <g id="svg_17"/>
  <g id="svg_18"/>
  <g id="svg_19"/>
  <g id="svg_20"/>
  <g id="svg_21"/>
  <g id="svg_22"/>
  <g id="svg_23"/>
  <g id="svg_24"/>
 </g>
</svg>