<svg xmlns="http://www.w3.org/2000/svg" width="575.572" height="486.565" viewBox="0 0 575.572 486.565"><g transform="translate(-26.323 -21.042)"><g transform="translate(151.124 80.193)"><g transform="translate(0 234.472)"><path d="M218.965,319.065h3.1l-19.7-179.913a3.043,3.043,0,0,0-3.022-2.709H98.014a3.041,3.041,0,0,0-3.022,2.709l-19.7,179.913h3.1l22-168.45a3.039,3.039,0,0,1,3.015-2.648h90.537a3.041,3.041,0,0,1,3.015,2.648Z" transform="translate(-75.294 -136.443)" fill="#9fbdf9"/><path d="M191.233,167.408H82.82l3.944-27.948H187.207Z" transform="translate(-63.641 -131.771)" fill="#9fbdf9"/><rect width="131.054" height="4.496" transform="translate(7.859 128.259)" fill="#9fbdf9"/></g><g transform="translate(0)"><g transform="translate(177.923 375.291)"><path d="M147.777,220.13c2.487,3.326,6.274,4.419,9.712,5.625s4.039,5.8,6.341,9.169c2.309,3.384,5.329,5.4,10.594,4.493,5.25-.9,16.183-3.5,17.671-8.176a4.822,4.822,0,0,0,.255-1.608c.018-3.683-4.289-5.961-7.995-8.644-4.228-3.068-8.746-8.028-14.088-12.834s-7.233-16.456-7.233-16.456l-17.926,4.577c1.437,4.8,2.8,8.683,2.23,11.445a29.691,29.691,0,0,0-.79,6.973C146.526,216.868,146.834,218.881,147.777,220.13Z" transform="translate(-145.109 -191.699)" fill="#85af12"/><path d="M146.9,206.158c2.487,3.326,6.274,4.419,9.712,5.625s4.039,5.8,6.341,9.169c2.309,3.384,5.329,5.4,10.594,4.493,5.25-.9,16.183-3.5,17.671-8.176a4.823,4.823,0,0,0,.255-1.608c-5.963,3.191-14.888,5.528-19.142,5.255-4.4-.283-10.91-6.705-12.809-9.144-1.916-2.431-5.443-3.282-8.665-5.066s-5.186-5.984-5.186-5.984C145.652,202.9,145.96,204.909,146.9,206.158Z" transform="translate(-144.235 -177.727)" fill="#85af12" style="mix-blend-mode:multiply;isolation:isolate"/></g><g transform="translate(45.962 379.323)"><path d="M93.882,217.757c1.876,3.706,5.416,5.441,8.593,7.225s2.969,6.415,4.654,10.128c1.685,3.733,4.312,6.236,9.654,6.262,5.324.028,16.545-.64,18.821-4.985a4.789,4.789,0,0,0,.53-1.542c.655-3.621-3.191-6.613-6.374-9.9-3.634-3.754-7.222-9.419-11.649-15.082a13.215,13.215,0,0,1-2.668-11.371l-15.225-5.209c-1,7.3-2.727,7.365-3.762,9.99a50.152,50.152,0,0,0-2.842,8.92C93.217,214.326,93.171,216.363,93.882,217.757Z" transform="translate(-93.329 -193.281)" fill="#85af12"/><path d="M93.882,206.267c1.876,3.706,5.416,5.441,8.593,7.225s2.969,6.415,4.654,10.128c1.685,3.734,4.312,6.236,9.654,6.262,5.324.028,16.545-.64,18.821-4.985a4.788,4.788,0,0,0,.53-1.542c-6.427,2.108-15.622,2.864-19.763,1.855-4.287-1.04-9.582-8.494-11.03-11.223-1.465-2.729-4.791-4.177-7.653-6.494s-4.072-6.792-4.072-6.792C93.217,202.837,93.171,204.873,93.882,206.267Z" transform="translate(-93.329 -181.791)" fill="#85af12" style="mix-blend-mode:multiply;isolation:isolate"/></g><path d="M163.983,138.775s33.337,27.307,43.388,41.884S239.463,294.8,239.463,294.8s-6.927,6.414-22.307,6.838c0,0-31.3-61.681-38.248-96.786l-64.324-38.666-16.5-30.717,56.979-8.369Z" transform="translate(-39.996 83.566)" fill="#362d70"/><path d="M85.037,162.377c3.728,10.984,14,12.21,19.8,12.518,15.709.838,39.461-7.7,39.461-7.7s13.194,5.354,13.864-8.377-13.367-29.236-20.689-28.194-45.536,5.362-45.536,5.362l-5-2.592S81.308,151.393,85.037,162.377Z" transform="translate(-62.182 88.94)" fill="#362d70"/><path d="M182.958,202.369c.757,6.4,3.387,9.35-4.113,9.661,0,0-7.317-2.852-38.9,5.178-22.845,5.808-50.491,2.276-47.412-1.31,6.491-38-2.4-61.4-2.4-61.4C88.907,124.6,77.9,111.5,79.972,105.246c.757-2.268,6.909-5.808,14.427-9.371s16.4-7.154,22.651-9.593L138.6,77.032l17.916,7.1c9.274,3.489,22.35,11.817,28.576,18.041,8.053,8.056-3.081,14.5-4.276,32.656C180.158,144.74,182.372,197.392,182.958,202.369Z" transform="translate(-68.452 6.032)" fill="#85af12"/><path d="M141.942,187.1h-.015c-.015,0-.043-.015-.059-.015-14.317-1.753-23.415-59.93-22.964-76.11l16.1-22.618s5.762,14.343,11.812,73.136C149.264,185.253,151.636,187.1,141.942,187.1Z" transform="translate(-7.79 23.569)" fill="#85af12"/><path d="M147.678,122.9c7.712,1.081,45.3,8.576,45.3,8.576s.637,10.711-1.588,13.882c0,0-49.277.446-56.248-.145s-14.134-18.64-16.815-31.925" transform="translate(-8.65 62.166)" fill="#85af12"/><path d="M117.413,92.644s6.2,27.567,6.384,38.446-1.593,28.349.178,37.261" transform="translate(-10.073 30.207)" fill="none" stroke="#4f6b01" stroke-miterlimit="10" stroke-width="0.718"/><path d="M95.764,106.739c13.308,3.384,32.621-1.822,32.621-1.822-2.031-1.386-2.793-5.986-3-10.793a93.959,93.959,0,0,1,.155-9.855c.14-2.222.3-3.7.3-3.7L97.915,62.824c2.775,16.881,2.238,31.076.607,38.5A11.922,11.922,0,0,1,95.764,106.739Z" transform="translate(-43.596 -15.969)" fill="#fbab99"/><path d="M100.816,68.781s7.668,11,16.744,16.119a93.96,93.96,0,0,1,.155-9.855Z" transform="translate(-35.773 -6.744)" fill="#ef998b"/><path d="M95.142,85.251s4.174-4.034,4.7-7.949c0,0,6.134,5.2,16.43,4.366,0,0,.138,2.8,1.014,2.88s1.035-2.989,1.035-2.989,6.374-.8,8.535-4.414c0,0,2.482,5.938,5.749,6.8,0,0-4.5,2.161-14.554,3.535S95.142,85.251,95.142,85.251Z" transform="translate(-44.559 6.206)" fill="#ffb948"/><g transform="translate(63.19 88.129)"><path d="M108.125,83.007s-8.683,71.867-8,82.764,9.225,32.6,12.065,33.622,8.976-22.613,10.2-32.445S112.011,82.88,112.011,82.88" transform="translate(-100.089 -73.041)" fill="#f3feff"/><path d="M104,79.638a7.851,7.851,0,0,1,5.326-.283c1.18.522,2.38,3.79,2.564,4.722s-1.909,4.111-2.839,5.242a16.382,16.382,0,0,1-3.976.2s-2.661-2.87-2.994-5.635A5.658,5.658,0,0,1,104,79.638Z" transform="translate(-97.036 -79.019)" fill="#f3feff"/></g><path d="M147.467,64.8s3.907,40.661-10.933,49.66C129.85,118.519,108,100.012,108,100.012S93.687,87.655,96.141,73.33C100.774,46.277,143.28,37.883,147.467,64.8Z" transform="translate(-43.451 -38.401)" fill="#fbab99"/><path d="M158.527,55.381c-.408-.283-3.869,2.34-15.378-6.718-4.664-3.667-13.066-5.525-22.574-3.191a15.756,15.756,0,0,0-10.966,8.9s-6.634-1.412-11.9,5.278c-11.667,14.825,3.609,48.714,5.6,49.226s-2.5-22.2,7.008-21.927c5.653.161,7.431,9.949,8.341,9.039s-.079-12.217.831-14.7a3.854,3.854,0,0,1,3.614-1.623c4.419.576,3.509-6.845,7.151-7.959,2.286-.7,9.327-.517,14.052.731C162.9,77.348,164.944,59.84,158.527,55.381Z" transform="translate(-47.318 -44.438)" fill="#362d70"/><path d="M135.723,123.831c-1.435-.591-10.936-2.842-13.043-2.5s-8.606.031-10.8.031-9.32-.887-9.32-.887l.793,10.775c2.105-.209,4.931.887,6.448,1.1s6.659.237,9.819-1.348c.181-.089.344-.191.515-.288a8.008,8.008,0,0,0,4.636,2.317s1.384-.14,1.251-.7a26.7,26.7,0,0,0-1.9-3.043c1.351,1.381,3.568,3.614,6.121,3.741,0,0,1.381-.14,1.251-.7a38.534,38.534,0,0,0-2.472-3.889l.046.036c1.121.989,3.787,4.394,6.947,4.552,0,0,1.381-.14,1.251-.7a15.156,15.156,0,0,0-1.213-2.013,18.207,18.207,0,0,0,2.992,1.863c3.412,1.687,5.352.405,5.352,0S137.155,124.42,135.723,123.831Z" transform="translate(-33.07 73.298)" fill="#fbab99"/><path d="M.45,0H111.062a.45.45,0,0,1,.45.45V4.615a0,0,0,0,1,0,0H0a0,0,0,0,1,0,0V.45A.45.45,0,0,1,.45,0Z" transform="translate(76.059 203.188)" fill="#3e5e9e"/><path d="M87.731,87.579C76.209,100.191,73.125,133.5,76.7,161.11c1.455,11.257.856,24.927,17.615,24.927,12.964,0,52-.6,52-.6,2.26-4.98,1.623-14.157,1.623-14.157l-45.422-8.706s0-38.607-2.78-47.942" transform="translate(-75.294 22.364)" fill="#85af12"/><path d="M86.018,98.036s1.952,30.992-.041,48.347c0,0,19.045,4.083,30.867,5.918" transform="translate(-58.751 38.556)" fill="none" stroke="#4f6b01" stroke-miterlimit="10" stroke-width="0.718"/><path d="M91.288,117.142a71.611,71.611,0,0,0-8.741-.133" transform="translate(-64.062 67.797)" fill="none" stroke="#4f6b01" stroke-miterlimit="10" stroke-width="0.718"/><path d="M100.443,62.646c.782-.352,2.092-.454,3.068,1.552,1,2.049.161,1.891-.054,3.145s.989,1.2,1.335,2.283-.074,3.629-2.306,3.155-2.75-3.879-3.01-4.9S98.784,63.395,100.443,62.646Z" transform="translate(-38.236 -16.555)" fill="#ef998b"/><path d="M115.918,81.572a49.371,49.371,0,0,0-2.222,8.407c-.3.459-14.493-2.523-18.324-5.436,0,0,2.857-6.522,4.116-7.337C99.488,77.206,105.461,79.989,115.918,81.572Z" transform="translate(-44.203 6.302)" fill="#6f8900"/><path d="M104.238,81.559a54.686,54.686,0,0,1,3.249,8.01c1.287.025,10.079-5.576,10.365-5.872s-4.445-6.659-5.079-6.552C112.508,77.711,109.506,79.423,104.238,81.559Z" transform="translate(-30.474 6.205)" fill="#6f8900"/></g></g><g transform="translate(26.323 287.996)"><path d="M237.889,330.165h-6.241a2.069,2.069,0,0,1-2-1.557l-48.291-187.28-2.763-10.737h28.278l1.8,10.737,31.257,186.421A2.073,2.073,0,0,1,237.889,330.165Z" transform="translate(209.466 -118.835)" fill="#9fbdf9"/><path d="M90.3,130.591l-2.765,10.737L39.245,328.608a2.069,2.069,0,0,1-2,1.557H31a2.072,2.072,0,0,1-2.039-2.416L60.221,141.328l1.8-10.737Z" transform="translate(-22.28 -118.835)" fill="#9fbdf9"/><path d="M43.01,130.591H71.288l-2.765,10.737H41.211Z" transform="translate(-3.269 -118.836)" fill="#88aae2"/><path d="M208.671,141.328H181.358l-2.765-10.737h28.279Z" transform="translate(209.465 -118.836)" fill="#88aae2"/><path d="M32.2,137.739H480.792a5.88,5.88,0,0,0,5.879-5.882h0a5.88,5.88,0,0,0-5.879-5.879H32.2a5.88,5.88,0,0,0-5.879,5.879h0A5.88,5.88,0,0,0,32.2,137.739Z" transform="translate(-26.321 -125.978)" fill="#9fbdf9"/><path d="M486.668,128.284a5.878,5.878,0,0,1-5.877,5.879H32.2a5.869,5.869,0,0,1-5.879-5.879Z" transform="translate(-26.323 -122.407)" fill="#8fb2ea"/></g><g transform="translate(252.294 145.515)"><path d="M283.118,187.751H118.542a3.551,3.551,0,0,1-3.519-4.011L129.506,73.159a3.549,3.549,0,0,1,3.519-3.089H297.6a3.548,3.548,0,0,1,3.519,4.009L286.637,184.662A3.551,3.551,0,0,1,283.118,187.751Z" transform="translate(-114.992 -70.07)" fill="#6888d5"/><path d="M285.539,187.751H120.963a3.55,3.55,0,0,1-3.519-4.011L131.927,73.159a3.549,3.549,0,0,1,3.519-3.089H300.022a3.548,3.548,0,0,1,3.519,4.009L289.058,184.662A3.552,3.552,0,0,1,285.539,187.751Z" transform="translate(-111.243 -70.07)" fill="#9fbdf9"/><path d="M172.095,197.482H142.731L157.8,82.426a3.016,3.016,0,0,1,2.989-2.625H184.07a3.015,3.015,0,0,1,2.989,3.407Z" transform="translate(-72.039 -55.002)" fill="#6888d5"/><path d="M173.623,197.482H144.257L159.326,82.426a3.016,3.016,0,0,1,2.989-2.625H185.6a3.016,3.016,0,0,1,2.989,3.407Z" transform="translate(-69.676 -55.002)" fill="#5e83cc"/><path d="M1.018,0H93.1a1.018,1.018,0,0,1,1.018,1.018v4.06a0,0,0,0,1,0,0H0a0,0,0,0,1,0,0V1.018A1.018,1.018,0,0,1,1.018,0Z" transform="translate(40.479 137.403)" fill="#5e83cc"/></g><g transform="translate(272.843 21.348)"><path d="M254.032,21.348H137.484a8.1,8.1,0,0,0-8.038,7.062L123.06,77.736a.578.578,0,0,0,1,.461L140.1,60.284a8.1,8.1,0,0,1,6.037-2.7H248.652a8.1,8.1,0,0,0,8.028-7l3.107-22.636A5.809,5.809,0,0,0,254.032,21.348Z" transform="translate(-123.055 -21.348)" fill="none" stroke="#cbddf7" stroke-miterlimit="10" stroke-width="0.612"/><g transform="translate(23.538 10.07)"><line x2="32.286" transform="translate(1.981)" fill="none" stroke="#cbddf7" stroke-linecap="round" stroke-miterlimit="10" stroke-width="1.224"/><line x2="21.697" transform="translate(0 17.301)" fill="none" stroke="#cbddf7" stroke-linecap="round" stroke-miterlimit="10" stroke-width="1.224"/><line x2="56.493" transform="translate(43.45)" fill="none" stroke="#cbddf7" stroke-linecap="round" stroke-miterlimit="10" stroke-width="1.224"/><line x2="53.918" transform="translate(0.617 8.076)" fill="none" stroke="#cbddf7" stroke-linecap="round" stroke-miterlimit="10" stroke-width="1.224"/></g></g><g transform="translate(105.061 196.631)"><g transform="translate(18.586 0)"><rect width="9.782" height="81.88" transform="translate(9.778 82.12) rotate(-178.407)" fill="#ddd"/><g transform="translate(0.075 2.811)"><rect width="3.732" height="0.686" transform="matrix(-1, -0.028, 0.028, -1, 5.835, 0.79)" fill="#bcbcbc"/><rect width="3.732" height="0.686" transform="translate(5.785 2.591) rotate(-178.406)" fill="#bcbcbc"/><rect width="3.732" height="0.686" transform="matrix(-1, -0.028, 0.028, -1, 5.735, 4.392)" fill="#bcbcbc"/><rect width="3.732" height="0.686" transform="translate(5.635 7.995) rotate(-178.406)" fill="#bcbcbc"/><rect width="3.732" height="0.686" transform="matrix(-1, -0.028, 0.028, -1, 5.585, 9.796)" fill="#bcbcbc"/><rect width="3.732" height="0.686" transform="translate(5.535 11.597) rotate(-178.406)" fill="#bcbcbc"/><rect width="3.732" height="0.686" transform="translate(5.434 15.199) rotate(-178.408)" fill="#bcbcbc"/><rect width="3.732" height="0.686" transform="translate(5.384 17) rotate(-178.408)" fill="#bcbcbc"/><rect width="3.732" height="0.686" transform="matrix(-1, -0.028, 0.028, -1, 5.334, 18.802)" fill="#bcbcbc"/><rect width="3.732" height="0.686" transform="matrix(-1, -0.028, 0.028, -1, 5.234, 22.404)" fill="#bcbcbc"/><rect width="3.732" height="0.686" transform="translate(5.184 24.205) rotate(-178.408)" fill="#bcbcbc"/><rect width="3.732" height="0.686" transform="translate(5.134 26.006) rotate(-178.406)" fill="#bcbcbc"/><rect width="3.732" height="0.686" transform="translate(5.034 29.609) rotate(-178.406)" fill="#bcbcbc"/><rect width="3.732" height="0.686" transform="translate(4.984 31.41) rotate(-178.408)" fill="#bcbcbc"/><rect width="3.732" height="0.686" transform="translate(4.933 33.211) rotate(-178.408)" fill="#bcbcbc"/><rect width="3.732" height="0.687" transform="matrix(-1, -0.028, 0.028, -1, 4.833, 36.813)" fill="#bcbcbc"/><rect width="3.732" height="0.686" transform="translate(4.783 38.614) rotate(-178.406)" fill="#bcbcbc"/><rect width="3.732" height="0.686" transform="translate(4.733 40.415) rotate(-178.408)" fill="#bcbcbc"/><rect width="3.732" height="0.686" transform="translate(4.633 44.018) rotate(-178.406)" fill="#bcbcbc"/><rect width="3.732" height="0.686" transform="matrix(-1, -0.028, 0.028, -1, 4.583, 45.819)" fill="#bcbcbc"/><rect width="3.732" height="0.686" transform="translate(4.533 47.62) rotate(-178.406)" fill="#bcbcbc"/><rect width="3.732" height="0.686" transform="translate(4.432 51.223) rotate(-178.406)" fill="#bcbcbc"/><rect width="3.732" height="0.686" transform="translate(4.382 53.024) rotate(-178.406)" fill="#bcbcbc"/><rect width="3.732" height="0.686" transform="matrix(-1, -0.028, 0.028, -1, 4.332, 54.825)" fill="#bcbcbc"/><rect width="3.732" height="0.686" transform="translate(4.232 58.427) rotate(-178.408)" fill="#bcbcbc"/><rect width="3.732" height="0.686" transform="translate(4.182 60.228) rotate(-178.406)" fill="#bcbcbc"/><rect width="3.732" height="0.686" transform="translate(4.132 62.03) rotate(-178.403)" fill="#bcbcbc"/><rect width="3.732" height="0.686" transform="translate(4.032 65.632) rotate(-178.406)" fill="#bcbcbc"/><rect width="3.732" height="0.686" transform="translate(3.981 67.433) rotate(-178.408)" fill="#bcbcbc"/><rect width="3.732" height="0.686" transform="translate(3.931 69.234) rotate(-178.406)" fill="#bcbcbc"/><rect width="3.732" height="0.686" transform="matrix(-1, -0.028, 0.028, -1, 3.831, 72.837)" fill="#bcbcbc"/><rect width="3.732" height="0.686" transform="translate(3.781 74.638) rotate(-178.408)" fill="#bcbcbc"/><rect width="3.732" height="0.686" transform="translate(3.731 76.439) rotate(-178.408)" fill="#bcbcbc"/></g><g transform="translate(0.025 1.01)"><rect width="5.448" height="0.686" transform="translate(5.647 72.884) rotate(-178.406)" fill="#bcbcbc"/><rect width="5.448" height="0.686" transform="translate(5.446 80.089) rotate(-178.406)" fill="#bcbcbc"/><rect width="5.449" height="0.686" transform="matrix(-1, -0.028, 0.028, -1, 7.651, 0.838)" fill="#bcbcbc"/><rect width="5.448" height="0.686" transform="matrix(-1, -0.028, 0.028, -1, 7.451, 8.042)" fill="#bcbcbc"/><rect width="5.448" height="0.686" transform="matrix(-1, -0.028, 0.028, -1, 7.25, 15.247)" fill="#bcbcbc"/><rect width="5.448" height="0.686" transform="translate(7.05 22.452) rotate(-178.406)" fill="#bcbcbc"/><rect width="5.448" height="0.686" transform="matrix(-1, -0.028, 0.028, -1, 6.849, 29.656)" fill="#bcbcbc"/><rect width="5.448" height="0.686" transform="translate(6.649 36.861) rotate(-178.406)" fill="#bcbcbc"/><rect width="5.448" height="0.686" transform="translate(6.448 44.066) rotate(-178.406)" fill="#bcbcbc"/><rect width="5.448" height="0.686" transform="translate(6.248 51.27) rotate(-178.406)" fill="#bcbcbc"/><rect width="5.449" height="0.686" transform="matrix(-1, -0.028, 0.028, -1, 6.048, 58.475)" fill="#bcbcbc"/><rect width="5.449" height="0.686" transform="matrix(-1, -0.028, 0.028, -1, 5.847, 65.68)" fill="#bcbcbc"/></g></g><g transform="translate(23.699 17.595)"><rect width="4.119" height="58.435" transform="matrix(-0.987, -0.159, 0.159, -0.987, 4.067, 61.345)" fill="#ffd41d"/><rect width="4.119" height="0.769" transform="translate(13.374 3.655) rotate(-170.834)" fill="#99735e"/><path d="M70.218,99.273l4.067.655.082-.507a2.059,2.059,0,0,0-1.7-2.362h0a2.059,2.059,0,0,0-2.36,1.7Z" transform="translate(-60.789 -97.032)" fill="#ffd41d"/><path d="M66.519,120.843l.617,2.38.664,2.61,1.449-2.256,1.336-2.079Z" transform="translate(-66.517 -60.161)" fill="#e59470"/><path d="M66.761,121.827l.663,2.61,1.45-2.255a2.651,2.651,0,0,0-1.035-.405A2.734,2.734,0,0,0,66.761,121.827Z" transform="translate(-66.142 -58.764)" fill="#ffd41d"/><rect width="2.059" height="58.435" transform="matrix(-0.987, -0.159, 0.159, -0.987, 2.033, 61.017)" fill="#f7a616"/><rect width="2.059" height="58.435" transform="matrix(-0.987, -0.159, 0.159, -0.987, 3.049, 61.18)" fill="#ffb83b"/></g><g transform="translate(0 15.01)"><rect width="4.119" height="58.435" transform="translate(0 4.986) rotate(-9.229)" fill="#ffd41d"/><rect width="4.119" height="0.769" transform="translate(9.373 62.664) rotate(-9.232)" fill="#99735e"/><path d="M65.012,120.644l-4.067.663.084.507a2.057,2.057,0,0,0,2.362,1.7h0a2.06,2.06,0,0,0,1.7-2.362Z" transform="translate(-51.449 -57.883)" fill="#e8613d"/><path d="M61.284,100.348l-1.337-2.064-1.453-2.267-.663,2.6-.612,2.394Z" transform="translate(-57.219 -96.016)" fill="#e59470"/><path d="M59.577,98.285l-1.453-2.268-.665,2.6a2.65,2.65,0,0,0,1.109.056A2.773,2.773,0,0,0,59.577,98.285Z" transform="translate(-56.847 -96.017)" fill="#ffd41d"/><rect width="2.059" height="58.435" transform="translate(2.031 4.656) rotate(-9.232)" fill="#f7a616"/><rect width="2.059" height="58.435" transform="matrix(0.987, -0.16, 0.16, 0.987, 1.015, 4.821)" fill="#ffb83b"/></g><g transform="translate(14.963 5.636)"><rect width="4.119" height="58.435" transform="translate(0 4.82) rotate(-3.083)" fill="#9fbdf9"/><rect width="4.119" height="0.769" transform="translate(3.142 63.171) rotate(-3.081)" fill="#99735e"/><path d="M68.452,117.341l-4.113.222.028.512a2.061,2.061,0,0,0,2.169,1.947h0a2.06,2.06,0,0,0,1.945-2.166Z" transform="translate(-61.157 -53.624)" fill="#e8613d"/><path d="M67.2,96.944l-1.108-2.2-1.2-2.41-.937,2.512-.865,2.315Z" transform="translate(-63.089 -92.339)" fill="#e59470"/><path d="M65.569,94.75l-1.2-2.411-.935,2.513a2.616,2.616,0,0,0,1.1.173A2.784,2.784,0,0,0,65.569,94.75Z" transform="translate(-62.563 -92.339)" fill="#92b6ea"/><rect width="2.059" height="58.435" transform="translate(2.055 4.709) rotate(-3.086)" fill="#82a5d8"/><rect width="2.059" height="58.435" transform="matrix(0.999, -0.054, 0.054, 0.999, 1.029, 4.764)" fill="#92b6ea"/></g><g transform="translate(5.999 14.997)"><rect width="6.636" height="18.012" transform="translate(0.001 0.8) rotate(-6.928)" fill="#362d70"/><rect width="6.636" height="41.475" transform="matrix(0.993, -0.121, 0.121, 0.993, 2.174, 18.681)" fill="#c7d6e2"/><rect width="6.635" height="1.935" transform="translate(2.306 19.766) rotate(-6.928)" fill="#362d70"/><rect width="2.222" height="59.486" transform="translate(0 0.801) rotate(-6.931)" fill="#c7d6e2" style="mix-blend-mode:soft-light;isolation:isolate"/></g><g transform="translate(4.246 49.919)"><path d="M89.005,109.715l-3.611,38.454-.275,2.993H62.77l-3.885-41.446Z" transform="translate(-58.885 -109.715)" fill="#a3a0d8"/><path d="M86.436,109.715l-3.611,38.454H64.155l-3.611-38.454Z" transform="translate(-56.316 -109.715)" fill="#bfb8f4"/></g></g><g transform="translate(433.614 245.013)"><g transform="translate(0 4.865)"><path d="M200.1,130.914s-11.468-6.715-13.956-19.893c0,0,10.8,2.238,16.219,19.893" transform="translate(-186.14 -111.021)" fill="#d6d4ff"/></g><g transform="translate(16.219 4.865)"><path d="M194.767,130.914s11.468-6.715,13.956-19.893c0,0-10.8,2.238-16.219,19.893" transform="translate(-192.504 -111.021)" fill="#d6d4ff"/></g><g transform="translate(8.739 0.089)"><path d="M195.848,132.738s-8.27-10.4-5.828-23.591c0,0,9.266,5.989,7.939,24.407" transform="translate(-189.569 -109.147)" fill="#d6d4ff"/></g><g transform="translate(15.374)"><path d="M194.488,132.833s8.023-10.6,5.27-23.721c0,0-9.121,6.206-7.36,24.588" transform="translate(-192.172 -109.112)" fill="#d6d4ff"/></g><g transform="translate(3.454 22.085)"><rect width="24.99" height="20.899" fill="#594a5f"/><rect width="4.91" height="20.899" transform="translate(20.08)" fill="#4c4051"/></g></g><g transform="translate(463.864 268.936)"><g transform="translate(0 54.464)"><path d="M260.147,280.362s-83.165-112.345-57.068-136.339S267.313,204.548,260.147,280.362Z" transform="translate(-198.01 -139.87)" fill="#d6d4ff"/><path d="M203.261,146.6C235.385,193.96,249,245.924,254.733,286.679" transform="translate(-189.879 -129.446)" fill="none" stroke="#7878c4" stroke-miterlimit="10" stroke-width="1.349"/><path d="M202.314,152.582a133.027,133.027,0,0,1,20.78,15.52" transform="translate(-191.346 -120.186)" fill="none" stroke="#7878c4" stroke-miterlimit="10" stroke-width="1.159"/><path d="M203.324,155.223a132.863,132.863,0,0,1,20.783,15.518" transform="translate(-189.782 -116.096)" fill="none" stroke="#7878c4" stroke-miterlimit="10" stroke-width="1.159"/></g><g transform="translate(75.904 40.398)"><path d="M229.942,276.044s80.18-114.493,53.462-137.791S220.782,200.444,229.942,276.044Z" transform="translate(-226.728 -134.351)" fill="#d6d4ff"/><path d="M276.5,141.068c-33.217,51.856-44.866,108.481-48.707,150.521" transform="translate(-227.794 -123.949)" fill="none" stroke="#7878c4" stroke-miterlimit="10" stroke-width="1.349"/><path d="M230.173,168.436c.308,10.561.991,20.123,1.789,28.4" transform="translate(-224.11 -81.57)" fill="none" stroke="#0e7c74" stroke-miterlimit="10" stroke-width="1.159"/></g><g transform="translate(13.382 0)"><path d="M262.728,259.993s-80.7-114.129-54.081-137.549S271.543,184.354,262.728,259.993Z" transform="translate(-203.261 -118.499)" fill="#a29ee5"/><path d="M208.523,125.219c42.361,65.478,50.164,138.757,51.191,180.41" transform="translate(-195.112 -108.093)" fill="none" stroke="#7878c4" stroke-miterlimit="10" stroke-width="1.349"/></g><g transform="translate(64.446 89.718)"><path d="M225.079,238.773s49.66-68.251,33.783-82.609S220.377,193.028,225.079,238.773Z" transform="translate(-221.517 -153.704)" fill="#8c8cdd"/><path d="M255.689,157.766c-26.114,39.188-31.428,83.368-32.391,108.509" transform="translate(-223.298 -147.413)" fill="none" stroke="#7878c4" stroke-miterlimit="10" stroke-width="1.349"/></g><g transform="translate(30.849 168.671)"><path d="M277.624,185.793l-.392,2.61-.821,5.546-7.48,50.205a3.56,3.56,0,0,1-3.522,3.035H224.228a3.56,3.56,0,0,1-3.522-3.035l-7.48-50.205-.821-5.546-.392-2.61Z" transform="translate(-207.176 -182.967)" fill="#bfb8f4"/><path d="M276.994,186.817l-.822,5.545H212.989l-.822-5.545Z" transform="translate(-206.938 -181.381)" fill="#7878c4"/><path d="M281.483,192.513H214.027a3.913,3.913,0,0,1-3.912-3.914h0a3.913,3.913,0,0,1,3.912-3.914h67.456A3.914,3.914,0,0,1,285.4,188.6h0A3.914,3.914,0,0,1,281.483,192.513Z" transform="translate(-210.115 -184.684)" fill="#a29ee5"/></g></g><path d="M136.232,147.849c2.215,2.36,13.237,10.609,8.874,23.984-5.515,16.9-31.229,100.285-31.229,100.285s-19.111-.617-18.966-6.781c0,0-.612-80.03,15.658-96.353" transform="translate(106.202 195.884)" fill="#362d70"/><path d="M141.878,138.717c15.342,21.866,20.393,35.424,20.393,35.424s-7.429,11.119-35.587,11.119c0,0-39.881-16.7-42.832-40.4" transform="translate(89.083 181.744)" fill="#362d70"/></g></svg>