<svg xmlns="http://www.w3.org/2000/svg" width="151.441" height="67.983"><path d="M76.714 23.405h1.221l3.867 6.07h.023v-6.07h1.296v8.543h-1.225l-3.861-6.07h-.021v6.07h-1.3zm7.918 4.272a14.26 14.26 0 01.088-1.992 2.359 2.359 0 01.287-.814 2.95 2.95 0 011-1.055 2.937 2.937 0 011.682-.48 2.987 2.987 0 011.7.48 2.872 2.872 0 01.973 1.055 1.961 1.961 0 01.3.814 16.433 16.433 0 01.076 1.992 16.466 16.466 0 01-.076 1.98 1.975 1.975 0 01-.3.826 2.786 2.786 0 01-.978 1.043 3.052 3.052 0 01-1.7.492 3 3 0 01-1.682-.492 2.862 2.862 0 01-1-1.043q-.094-.193-.17-.369a2.407 2.407 0 01-.117-.457 14.288 14.288 0 01-.083-1.98zm1.3 0a9.97 9.97 0 00.094 1.705 1.423 1.423 0 00.334.721 1.516 1.516 0 00.539.428 1.52 1.52 0 00.785.193 1.6 1.6 0 00.8-.193 1.431 1.431 0 00.516-.428 1.5 1.5 0 00.346-.721 10.625 10.625 0 00.088-1.705 10.871 10.871 0 00-.088-1.717 1.494 1.494 0 00-.346-.709 1.542 1.542 0 00-.516-.439 1.884 1.884 0 00-.8-.182 1.79 1.79 0 00-.785.182 1.634 1.634 0 00-.539.439 1.414 1.414 0 00-.334.709 10.2 10.2 0 00-.093 1.717zm9.188-4.271h1.219l2.449 5.566 2.4-5.566h1.226v8.542h-1.293v-5.326h-.029l-1.787 4.1h-1.079l-1.787-4.1h-.025v5.326h-1.293zm8.8 4.271a14.26 14.26 0 01.094-1.993 2.359 2.359 0 01.287-.814 2.95 2.95 0 011-1.055 2.937 2.937 0 011.682-.48 2.987 2.987 0 011.7.48 2.872 2.872 0 01.973 1.055 1.961 1.961 0 01.3.814 16.433 16.433 0 01.076 1.992 16.466 16.466 0 01-.076 1.98 1.975 1.975 0 01-.3.826 2.786 2.786 0 01-.973 1.043 3.052 3.052 0 01-1.7.492 3 3 0 01-1.682-.492 2.862 2.862 0 01-1-1.043q-.094-.193-.17-.369a2.407 2.407 0 01-.117-.457 14.288 14.288 0 01-.093-1.979zm1.3 0a9.97 9.97 0 00.094 1.705 1.423 1.423 0 00.334.721 1.516 1.516 0 00.539.428 1.52 1.52 0 00.785.193 1.6 1.6 0 00.8-.193 1.431 1.431 0 00.516-.428 1.5 1.5 0 00.346-.721 10.625 10.625 0 00.088-1.705 10.871 10.871 0 00-.088-1.717 1.494 1.494 0 00-.346-.709 1.542 1.542 0 00-.516-.439 1.884 1.884 0 00-.8-.182 1.79 1.79 0 00-.785.182 1.634 1.634 0 00-.539.439 1.414 1.414 0 00-.334.709 10.2 10.2 0 00-.092 1.717zm7.608-.529h1.957a1.413 1.413 0 001.09-.422 1.318 1.318 0 00.357-.937 1.135 1.135 0 00-.428-.967 1.485 1.485 0 00-.949-.264h-2.027zm-1.295-3.743h3.334a2.624 2.624 0 011.74.563 2.272 2.272 0 01.85 1.822 2.377 2.377 0 01-1.653 2.367l1.981 3.791h-1.541l-1.764-3.65h-1.652v3.65h-1.295zm7.318 0h5.455v1.225h-4.16v2.438h3.551v1.148h-3.551v2.508h4.16v1.224h-5.455zm10.846 3.984h1.917a1.365 1.365 0 001.083-.441 1.443 1.443 0 00.346-.937 1.658 1.658 0 00-.141-.721 1.076 1.076 0 00-.41-.416 1.625 1.625 0 00-.926-.24h-1.869zm-1.295-3.984h3.094a4.949 4.949 0 01.973.094 2.617 2.617 0 01.949.5 2.053 2.053 0 01.656.82 2.645 2.645 0 01.264 1.219 2.593 2.593 0 01-.668 1.729 2.526 2.526 0 01-2 .844h-1.973v3.337h-1.295zm10.23 5.484l-1.236-3.732h-.023l-1.237 3.732zm.369 1.148h-3.24l-.656 1.911h-1.371l3.105-8.543h1.084l3.106 8.543h-1.365zm2.941-6.633h1.295v8.544h-1.294zm3.094 0h1.219l3.867 6.07h.023v-6.07h1.295v8.544h-1.226l-3.859-6.07h-.023v6.07h-1.295zM76.714 37.405h5.457v1.225h-4.157v2.518h3.548v1.15h-3.548v3.65h-1.3zm6.155 4.272a14.26 14.26 0 01.088-1.992 2.359 2.359 0 01.287-.814 3.024 3.024 0 012.678-1.535 2.987 2.987 0 011.7.48 2.872 2.872 0 01.973 1.055 1.961 1.961 0 01.3.814 16.433 16.433 0 01.076 1.992 16.466 16.466 0 01-.076 1.98 1.975 1.975 0 01-.3.826 2.786 2.786 0 01-.973 1.043 3.052 3.052 0 01-1.7.492 3 3 0 01-1.682-.492 2.862 2.862 0 01-1-1.043q-.094-.193-.17-.369a2.407 2.407 0 01-.117-.457 14.288 14.288 0 01-.084-1.98zm1.3 0a9.97 9.97 0 00.094 1.705 1.423 1.423 0 00.334.721 1.757 1.757 0 001.324.621 1.6 1.6 0 00.8-.193 1.431 1.431 0 00.516-.428 1.5 1.5 0 00.346-.721 10.625 10.625 0 00.088-1.705 10.871 10.871 0 00-.088-1.717 1.494 1.494 0 00-.346-.709 1.542 1.542 0 00-.516-.439 1.884 1.884 0 00-.8-.182 1.79 1.79 0 00-.785.182 1.634 1.634 0 00-.539.439 1.414 1.414 0 00-.334.709 10.2 10.2 0 00-.094 1.717zm7.606-.529h1.957a1.413 1.413 0 001.09-.422 1.318 1.318 0 00.357-.937 1.135 1.135 0 00-.428-.967 1.485 1.485 0 00-.949-.264h-2.027zm-1.295-3.743h3.334a2.624 2.624 0 011.74.563 2.272 2.272 0 01.85 1.822 2.377 2.377 0 01-1.652 2.367l1.98 3.791h-1.541l-1.764-3.65h-1.652v3.65H90.48zm12.967 3.838h3.035v1.74a3.063 3.063 0 01-4.729 2.543 2.862 2.862 0 01-1-1.043q-.094-.193-.17-.369a2.407 2.407 0 01-.117-.457 14.288 14.288 0 01-.088-1.98 14.26 14.26 0 01.088-1.992 2.359 2.359 0 01.287-.814 3.024 3.024 0 012.678-1.535 2.894 2.894 0 012.016.732 3.223 3.223 0 01.984 1.8h-1.367a1.88 1.88 0 00-.574-.879 1.692 1.692 0 00-1.055-.357 1.79 1.79 0 00-.785.182 1.634 1.634 0 00-.536.434 1.414 1.414 0 00-.334.709 10.2 10.2 0 00-.094 1.717 9.97 9.97 0 00.094 1.705 1.423 1.423 0 00.334.721 1.757 1.757 0 001.324.621 1.651 1.651 0 001.248-.516 1.79 1.79 0 00.5-1.295v-.442h-1.74zm8.555 1.646l-1.237-3.732h-.023l-1.236 3.732zm.369 1.148h-3.24l-.657 1.911h-1.371l3.105-8.543h1.084l3.106 8.543h-1.365zm2.943-6.632h1.295v8.543h-1.295zm3.094 0h1.219l3.867 6.07h.02v-6.07h1.3v8.543h-1.229l-3.861-6.07h-.023v6.07h-1.295z" fill="#156bff"/><path d="M0 50.987l33.991 17 33.991-17V17.001l-33.991-17L0 17.001z" fill="#0068ff"/><path d="M0 17.001l33.991 17 33.991-17-33.991-17z" fill="#b6d4ff"/><path d="M0 50.988l33.991 17V33.997L0 16.997z" fill="#7db2ff"/><path d="M33.991 67.983V33.997l33.991-17v33.991z" fill="#156bff"/><path d="M2.009 26.973l1.378.749 2.768 13.292L8.87 30.707l1.384.753v18.088l-1.464-.8V37.472l-.033-.018-2.02 7.586-1.219-.663-2.02-9.783-.026-.014v11.277l-1.464-.8zM15.77 51.404l-.026-.014a.868.868 0 01-.6.643 1.611 1.611 0 01-1.1-.275 4.219 4.219 0 01-1.774-2.107 7.538 7.538 0 01-.656-3.148 3.986 3.986 0 01.57-2.382q.569-.782 1.668-.209l1.914 1.041V43.6a2.482 2.482 0 00-1.411-2.417 1.486 1.486 0 00-.815-.245c-.208.044-.37.22-.49.528l-1.086-2.141a1.469 1.469 0 012.325-.621 5.074 5.074 0 012.073 2.045 7.821 7.821 0 01.788 3.753v8.8l-1.384-.753zm0-4.317l-1.655-.9q-1.207-.606-1.193.9a2.861 2.861 0 00.312 1.286 2.177 2.177 0 00.987 1.046q.867.5 1.225.281.324-.234.325-1.684zm3.171-5.694l1.384.753v1.364l.026.014a1.2 1.2 0 011.787-.553 3.857 3.857 0 011.444 1.778l-1.007 1.7a2.532 2.532 0 00-.906-1.139.662.662 0 00-.907.152 2.658 2.658 0 00-.437 1.809v7.754l-1.384-.753zm5.279-2.34l1.384.753v11.253l.026.014 2.642-4.6 1.655.9-2.371 3.735 2.7 9.319-1.735-.944-1.827-7.011-1.086 1.717v3.71l-1.384-.753zm15.845-4.102l3.728-1.728v25.993l-3.728 1.728zm13.071-2.548l-6.73 3.12v-3.511l17.205-7.976v3.512l-6.73 3.12V53.15l-3.745 1.731z" fill="#fff"/></svg>